C:\GBW_MyPrograms\KinderuniversiteitApp\Resultaten\TymenKool\Model2_v1.mot
version=1
nRows=9
nColumns=31
inDegrees=yes
endheader
                time	         pelvis_tilt	           pelvis_tx	           pelvis_ty	       hip_flexion_r	        knee_angle_r	       ankle_angle_r	       hip_flexion_l	        knee_angle_l	       ankle_angle_l	    lumbar_extension	          arm_flex_r	          arm_flex_l	hamstrings_r/activation	bifemsh_r/activation	glut_max_r/activation	iliopsoas_r/activation	rect_fem_r/activation	  vasti_r/activation	gastroc_r/activation	 soleus_r/activation	tib_ant_r/activation	hamstrings_l/activation	bifemsh_l/activation	glut_max_l/activation	iliopsoas_l/activation	rect_fem_l/activation	  vasti_l/activation	gastroc_l/activation	 soleus_l/activation	tib_ant_l/activation	
          1.45083129	        -11.61310211	          1.78423286	          0.93651570	         19.60918179	          2.95497718	        -63.13868751	        -20.23180283	         -1.42543148	        -27.90822271	        -12.47013477	        -24.08082783	        -24.08088742	          0.14221021	          0.24789163	          0.65399759	          0.46988427	          0.84638584	          0.78391362	          0.76244528	          0.19366564	          0.07124089	          0.77644495	          0.66785118	          0.32012796	          0.59671078	          0.40460071	          0.24279006	          0.45633178	          0.45481372	          0.29435775	
          1.46533960	        -11.60432447	          1.79552147	          0.92313163	         18.01994555	          3.54029544	        -61.73314311	        -13.36296809	         -8.67167469	        -28.34800061	        -13.85435055	        -21.99961495	        -21.99967247	          0.12029162	          0.21314927	          0.54178962	          0.40174269	          0.89585389	          0.82901207	          0.80362807	          0.18020090	          0.06111987	          0.81129358	          0.64181432	          0.61468103	          0.51271026	          0.34321890	          0.22462456	          0.47224923	          0.54306738	          0.25278338	
          1.47984791	        -11.70892607	          1.80732633	          0.91248356	         15.52840379	          4.77352805	        -58.66602410	         -6.44449607	        -16.53991439	        -29.33645527	        -14.89364295	        -20.56246875	        -20.56252409	          0.14128873	          0.48252924	          0.45106484	          0.68623799	          0.73366533	          0.69788620	          0.77197225	          0.19977466	          0.07154855	          0.89852002	          0.64990297	          0.80143454	          0.42373735	          0.28047358	          0.21012620	          0.46804198	          0.48858856	          0.26236668	
          1.49435622	        -11.86729351	          1.82049451	          0.90504478	         12.56467925	          5.28000643	        -53.38252510	         -0.85898981	        -22.75831697	        -29.38494255	        -15.47987883	        -19.78709742	        -19.78715028	          0.15219796	          0.55093417	          0.37728875	          0.79281390	          0.60461351	          0.60172915	          0.76699047	          0.20714016	          0.06675118	          0.89943589	          0.67044207	          0.85756227	          0.37350884	          0.24127044	          0.17909581	          0.46828801	          0.45855755	          0.24857179	
          1.50886454	        -11.82617496	          1.83610170	          0.89931081	          9.16763751	          4.14250251	        -45.28741671	          2.65717527	        -27.14039352	        -28.96393457	        -15.71776139	        -19.69192205	        -19.69197213	          0.16256176	          0.53447373	          0.32227617	          0.69512704	          0.49850744	          0.53800291	          0.73634056	          0.19939222	          0.05240708	          0.77649780	          0.64185065	          0.71546803	          0.34293992	          0.24274067	          0.16554464	          0.46579770	          0.42866299	          0.24107708	
          1.52337285	        -11.56575385	          1.85425590	          0.89307594	          5.51243232	          1.32866836	        -36.13627916	          4.39909549	        -30.43126311	        -28.94840451	        -15.64375248	        -20.28998594	        -20.29003294	          0.20773570	          0.50168342	          0.29959082	          0.57431057	          0.40985950	          0.49499691	          0.64317783	          0.17859313	          0.49912887	          0.63209355	          0.58055775	          0.58976722	          0.45145002	          0.47771457	          0.22725960	          0.46070927	          0.39710774	          0.23580977	
          1.53788116	        -11.12815023	          1.87423426	          0.88527651	          2.04002317	         -3.35056026	        -28.17150616	          4.69172487	        -32.31315857	        -29.67328854	        -15.43764833	        -21.56753994	        -21.56758360	          0.45188046	          0.65898425	          0.26158241	          0.46574421	          0.33570177	          0.43123965	          0.53377944	          0.15137087	          0.73684132	          0.51207418	          0.52581758	          0.47842555	          0.64171613	          0.66481268	          0.25911871	          0.45720654	          0.37086813	          0.23074099	
          1.55238948	        -10.61507236	          1.89454617	          0.87628255	         -1.01893963	         -8.91348832	        -24.12943352	          4.29588312	        -32.94360055	        -30.96751301	        -15.37083981	        -23.35278977	        -23.35283074	          0.63582018	          0.68274884	          0.26390369	          0.37655492	          0.27188631	          0.38488020	          0.45608887	          0.13221719	          0.71979554	          0.41733917	          0.47021279	          0.39048390	          0.63774404	          0.71714418	          0.25218067	          0.45180694	          0.34213205	          0.20401226	
          1.56689779	        -10.24752717	          1.91404977	          0.86646790	         -3.71750132	        -14.50956094	        -20.31670258	          3.96272322	        -32.52200492	        -33.91289001	        -15.42188916	        -25.06576443	        -25.06580433	          0.81166368	          0.67573898	          0.34020203	          0.30446348	          0.22012357	          0.32778912	          0.42111444	          0.11350581	          0.67769537	          0.35370234	          0.43594319	          0.31690897	          0.53048981	          0.62168685	          0.57941069	          0.48331825	          0.34822907	          0.16680435	
